<?xml version="1.0" encoding="UTF-8"?>
<svg id="Layer_1" data-name="Layer 1" xmlns="http://www.w3.org/2000/svg" xmlns:xlink="http://www.w3.org/1999/xlink" viewBox="0 0 2626.63 2176.15">
  <defs>
    <style>
      .cls-1 {
        fill: url(#linear-gradient-2);
      }

      .cls-2 {
        letter-spacing: -.03em;
      }

      .cls-3 {
        fill: url(#linear-gradient-6);
      }

      .cls-4 {
        clip-path: url(#clippath-2);
      }

      .cls-5 {
        letter-spacing: 0em;
      }

      .cls-6 {
        clip-path: url(#clippath-6);
      }

      .cls-7 {
        fill-rule: evenodd;
      }

      .cls-7, .cls-8 {
        fill: #027217;
      }

      .cls-9 {
        clip-path: url(#clippath-7);
      }

      .cls-10 {
        clip-path: url(#clippath-1);
      }

      .cls-11 {
        clip-path: url(#clippath-4);
      }

      .cls-12 {
        letter-spacing: 0em;
      }

      .cls-13 {
        fill: url(#linear-gradient-5);
      }

      .cls-14 {
        clip-path: url(#clippath);
      }

      .cls-15 {
        letter-spacing: -.06em;
      }

      .cls-16 {
        fill: none;
      }

      .cls-17 {
        clip-path: url(#clippath-3);
      }

      .cls-18 {
        fill: url(#linear-gradient-7);
      }

      .cls-19 {
        letter-spacing: -.06em;
      }

      .cls-20 {
        clip-path: url(#clippath-8);
      }

      .cls-21 {
        letter-spacing: 0em;
      }

      .cls-22 {
        fill: url(#linear-gradient-9);
      }

      .cls-23 {
        fill: url(#linear-gradient-3);
      }

      .cls-24 {
        clip-path: url(#clippath-5);
      }

      .cls-25 {
        fill: url(#linear-gradient);
      }

      .cls-26 {
        fill: url(#linear-gradient-4);
      }

      .cls-27 {
        letter-spacing: 0em;
      }

      .cls-28 {
        font-family: Panchang-Light, Panchang;
        font-size: 150px;
        font-weight: 300;
      }

      .cls-29 {
        fill: url(#linear-gradient-8);
      }
    </style>
    <clipPath id="clippath">
      <path class="cls-16" d="M942.33,568.93c-.04,.86-14.9,283.47-38.55,358.4,32.71,39.43,187.5,233.43,225.39,418.19l-31.4,6.4c-40.67-198.31-223.94-410.38-224.47-411l-6.77-7.89,4.44-9.38c23.15-48.87,40.53-360.88,40.58-361.76l30.77,7.03Z"/>
    </clipPath>
    <linearGradient id="linear-gradient" x1="990.32" y1="-185.94" x2="1001.85" y2="1564.79" gradientUnits="userSpaceOnUse">
      <stop offset="0" stop-color="#ff0"/>
      <stop offset="1" stop-color="#f05"/>
    </linearGradient>
    <clipPath id="clippath-1">
      <path class="cls-16" d="M1157.11,343.72c-1.37,.4-467.05,137.25-739.76,105.88-22.57,139.14,41.95,191.52,130.37,208.98,65.72,12.98,144.98,8,213.54,3.69,75.12-4.72,138.16-8.68,165.71,13.04l-19.84,25.24c-17.97-14.17-75.41-10.56-143.86-6.26-70.54,4.43-152.09,9.56-221.71-4.19-108.94-21.52-187.65-86.46-153.09-261.43l7.02-12.59,11-.22c263.39,37.63,740.31-102.52,741.69-102.92l8.92,30.77Z"/>
    </clipPath>
    <linearGradient id="linear-gradient-2" x1="750.96" y1="-184.37" x2="762.49" y2="1566.37" xlink:href="#linear-gradient"/>
    <clipPath id="clippath-2">
      <path class="cls-16" d="M395.51,416.1c1.13-.65,393.94-225.15,427.84-386.84l6.14-29.26,20.99,21.28c.39,.4,139.33,137.33-.06,387.01l-28.01-15.57c95.62-171.28,51.01-281.66,22.52-326.34-72.02,170.95-432.37,376.85-433.47,377.48l-15.95-27.76Z"/>
    </clipPath>
    <linearGradient id="linear-gradient-3" x1="689.99" y1="-183.97" x2="701.51" y2="1566.77" xlink:href="#linear-gradient"/>
    <clipPath id="clippath-3">
      <path class="cls-16" d="M1311.52,303.74c.73,.01,249.87,2.53,365.3,258.8-231.1,166.6-250.13,430.25-269.16,693.99l-1.48,20.43,32.03,2.26,1.48-20.43c18.77-260.1,37.53-520.13,266.15-677.49l6.65-2.44-1-16.97c-121.14-287.35-399.16-290.17-399.96-290.19-.8,.02-278.83,2.84-399.96,290.19l-1,16.97,6.65,2.44c228.61,157.36,247.38,417.39,266.15,677.49l1.48,20.43,32.03-2.26-1.48-20.43c-19.03-263.74-38.06-527.39-269.16-693.99,115.43-256.27,364.57-258.78,365.3-258.8"/>
    </clipPath>
    <linearGradient id="linear-gradient-4" x1="1317.89" y1="-188.01" x2="1306.32" y2="1562.72" xlink:href="#linear-gradient"/>
    <clipPath id="clippath-4">
      <path class="cls-16" d="M1311.52,1451.82c93.29-3.22,147.22,34.52,147.37,34.63l9.3,6.46,9.22-6.65c35.08-25.29,48.07-135.34,48.11-135.66l1.24-10.26-8.9-5.37c-37.83-22.83-82.55-68.2-82.67-68.33l-5.28-5.33-118.39,10.76-118.39-10.76-5.28,5.33c-.13,.13-44.85,45.5-82.67,68.33l-8.9,5.37,1.24,10.26c.04,.32,13.03,110.37,48.11,135.66l9.22,6.65,9.3-6.46c.15-.11,54.08-37.85,147.37-34.63m0-147.72l106.32-9.53c12.36,12.05,44.08,41.95,74.45,62.18-3.19,21.94-12.09,74.41-26.91,96.24-22.65-12.25-76.31-35.86-153.85-33.19-77.54-2.68-131.2,20.94-153.85,33.19-14.83-21.83-23.73-74.3-26.91-96.24,30.37-20.23,62.09-50.13,74.45-62.18l106.32,9.53Z"/>
    </clipPath>
    <linearGradient id="linear-gradient-5" x1="1321.86" y1="-187.99" x2="1310.29" y2="1562.74" xlink:href="#linear-gradient"/>
    <clipPath id="clippath-5">
      <path class="cls-16" d="M1443.64,1463.55c-.05,.17-14.34,60.03-132.12,67.47-117.78-7.44-132.08-67.3-132.12-67.47l-30.9,8.54c.06,.24,22.2,81.79,163.02,90.68,140.82-8.89,162.96-90.45,163.02-90.68l-30.9-8.54Z"/>
    </clipPath>
    <linearGradient id="linear-gradient-6" x1="1322.76" y1="-187.98" x2="1311.19" y2="1562.74" xlink:href="#linear-gradient"/>
    <clipPath id="clippath-6">
      <path class="cls-16" d="M1680.71,568.93c.04,.86,14.9,283.47,38.55,358.4-32.71,39.43-187.5,233.43-225.39,418.19l31.4,6.4c40.67-198.31,223.94-410.38,224.47-411l6.77-7.89-4.44-9.38c-23.15-48.87-40.53-360.88-40.58-361.76l-30.77,7.03Z"/>
    </clipPath>
    <linearGradient id="linear-gradient-7" x1="1632.74" y1="-185.93" x2="1621.17" y2="1564.8" xlink:href="#linear-gradient"/>
    <clipPath id="clippath-7">
      <path class="cls-16" d="M1465.92,343.72c1.37,.4,467.05,137.25,739.76,105.88,22.57,139.14-41.95,191.52-130.37,208.98-65.72,12.98-144.98,8-213.54,3.69-75.12-4.72-138.16-8.68-165.71,13.04l19.84,25.24c17.97-14.17,75.41-10.56,143.86-6.26,70.54,4.43,152.09,9.56,221.71-4.19,108.94-21.52,187.65-86.46,153.09-261.43l-7.02-12.59-11-.22c-263.39,37.63-740.31-102.52-741.69-102.92l-8.92,30.77Z"/>
    </clipPath>
    <linearGradient id="linear-gradient-8" x1="1872.1" y1="-184.35" x2="1860.53" y2="1566.38" xlink:href="#linear-gradient"/>
    <clipPath id="clippath-8">
      <path class="cls-16" d="M2227.53,416.1c-1.13-.65-393.94-225.15-427.84-386.84l-6.14-29.26-20.99,21.28c-.4,.4-139.33,137.33,.06,387.01l28.01-15.57c-95.62-171.28-51.01-281.66-22.52-326.34,72.02,170.95,432.37,376.85,433.47,377.48l15.95-27.76Z"/>
    </clipPath>
    <linearGradient id="linear-gradient-9" x1="1933.06" y1="-183.95" x2="1921.49" y2="1566.78" xlink:href="#linear-gradient"/>
  </defs>
  <g>
    <g class="cls-14">
      <rect class="cls-25" x="866.53" y="561.89" width="262.63" height="790.03"/>
    </g>
    <g class="cls-10">
      <rect class="cls-1" x="353.93" y="312.95" width="803.19" height="390.91"/>
    </g>
    <g class="cls-4">
      <rect class="cls-23" x="395.51" width="594.3" height="443.85"/>
    </g>
    <path class="cls-7" d="M824.81,388.38c92.47-168.81,48.37-277.7,20.12-322-57.51,136.51-298.87,295.3-394.35,354.06,111.44,7.64,250.02-9.42,374.23-32.06"/>
    <path class="cls-7" d="M1052.18,371.72c-153.61,38.33-442.3,100.03-634.82,77.88-22.57,139.14,41.95,191.52,130.37,208.98,65.72,12.98,144.98,8,213.54,3.69,59.1-3.72,110.72-6.96,143.47,2.4,2.72-36.5,4.71-67.66,5.82-85.82,0-.1,.01-.21,.02-.31l.98-16.66c36.56-86.73,87.41-147.54,140.62-190.17"/>
    <path class="cls-7" d="M1183.36,1258.78c-18.11-250.92-36.21-501.78-242.72-660.45-4.52,74.46-17.85,268.78-36.86,329,31.35,37.79,174.83,217.55,220.07,395.08,25.88-18.95,51.13-43.09,60.34-52.14l-.83-11.49Z"/>
    <g class="cls-17">
      <rect class="cls-26" x="910.56" y="271.7" width="801.92" height="1007.51"/>
    </g>
    <g class="cls-11">
      <rect class="cls-13" x="1096.27" y="1261.3" width="430.49" height="231.61"/>
    </g>
    <g class="cls-24">
      <rect class="cls-3" x="1148.5" y="1463.55" width="326.04" height="99.22"/>
    </g>
    <g class="cls-6">
      <rect class="cls-18" x="1493.87" y="561.89" width="262.63" height="790.03"/>
    </g>
    <g class="cls-9">
      <rect class="cls-29" x="1465.92" y="312.95" width="803.19" height="390.91"/>
    </g>
    <g class="cls-20">
      <rect class="cls-22" x="1633.23" width="594.3" height="443.85"/>
    </g>
    <path class="cls-7" d="M1798.23,388.38c-92.47-168.81-48.37-277.7-20.12-322,57.51,136.51,298.87,295.3,394.35,354.06-111.44,7.64-250.02-9.42-374.23-32.06"/>
    <path class="cls-7" d="M1570.86,371.72c153.61,38.33,442.3,100.03,634.82,77.88,22.57,139.14-41.95,191.52-130.37,208.98-65.72,12.98-144.98,8-213.54,3.69-59.1-3.72-110.72-6.96-143.47,2.4-2.72-36.5-4.71-67.66-5.82-85.82,0-.1-.01-.21-.02-.31l-.98-16.66c-36.56-86.73-87.41-147.54-140.62-190.17"/>
    <path class="cls-7" d="M1466.33,343.84c73.36,34.56,156.53,98.91,210.48,218.69-231.1,166.6-250.13,430.25-269.16,693.99l-.5,6.85-95.64,8.69-95.64-8.69-.5-6.85c-19.03-263.74-38.06-527.39-269.16-693.99,53.96-119.79,137.12-184.13,210.48-218.69,.25-.07,.39-.11,.41-.12l-.02-.06c83.41-39.2,154.04-39.91,154.42-39.92,.39,0,71.01,.72,154.42,39.92l-.02,.06s.16,.05,.41,.12"/>
    <path class="cls-7" d="M1439.68,1258.78c18.11-250.92,36.21-501.78,242.72-660.45,4.52,74.46,17.85,268.78,36.86,329-31.35,37.79-174.83,217.55-220.07,395.08-25.88-18.95-51.13-43.09-60.34-52.14l.83-11.49Z"/>
    <path class="cls-7" d="M1311.52,1304.1l106.32-9.53c12.36,12.05,44.08,41.95,74.45,62.18-3.19,21.94-12.09,74.41-26.91,96.24-22.65-12.25-76.31-35.86-153.85-33.19-77.54-2.68-131.2,20.94-153.85,33.19-14.83-21.83-23.73-74.3-26.91-96.24,30.37-20.23,62.09-50.13,74.45-62.18l106.32,9.53Z"/>
    <path class="cls-7" d="M1311.52,1451.82c59.54-2.05,103.04,12.58,126.77,23.46-10.82,17.86-41.98,50.39-126.77,55.74-84.79-5.36-115.95-37.88-126.77-55.74,23.73-10.88,67.23-25.51,126.77-23.46"/>
  </g>
  <path class="cls-8" d="M171.23,1635.4h82.03c25.91,0,45.54,2.02,58.89,6.05,13.35,4.03,24.12,12.2,32.32,24.49,8.2,12.3,12.3,32.11,12.3,59.43,0,18.48-2.9,31.36-8.69,38.65-5.79,7.29-17.22,12.88-34.28,16.79,19.01,4.3,31.9,11.43,38.67,21.4,6.77,9.97,10.16,25.24,10.16,45.83v29.31c0,21.37-2.44,37.2-7.32,47.49-4.88,10.29-12.67,17.33-23.34,21.11-10.68,3.78-32.55,5.67-65.62,5.67h-95.12v-316.21Zm82.23,54.1v70.31c3.52-.13,6.25-.2,8.2-.2,8.07,0,13.21-1.98,15.43-5.96,2.21-3.97,3.32-15.33,3.32-34.08,0-9.89-.91-16.83-2.73-20.8-1.83-3.97-4.2-6.48-7.13-7.52-2.93-1.04-8.63-1.63-17.09-1.76Zm0,119.53v88.48c11.59-.39,18.98-2.21,22.17-5.47,3.19-3.25,4.79-11.26,4.79-24.02v-29.49c0-13.54-1.43-21.74-4.3-24.61-2.87-2.86-10.42-4.49-22.66-4.88Zm280.81-173.63l47.02,316.21h-84.03l-4.41-56.84h-29.41l-4.94,56.84h-85.01l41.94-316.21h118.85Zm-43.58,203.32c-4.16-35.82-8.34-80.08-12.52-132.81-8.38,60.55-13.64,104.82-15.78,132.81h28.3Zm104.57-203.32h58.2c38.8,0,65.07,1.5,78.81,4.49,13.74,3,24.93,10.64,33.59,22.95,8.66,12.3,12.99,31.93,12.99,58.89,0,24.61-3.06,41.15-9.18,49.61-6.12,8.47-18.16,13.54-36.13,15.23,16.28,4.04,27.21,9.44,32.81,16.21,5.6,6.77,9.08,12.99,10.45,18.65s2.05,21.26,2.05,46.78v83.4h-76.37v-105.08c0-16.92-1.34-27.41-4-31.45-2.67-4.03-9.67-6.05-21-6.05v142.58h-82.23v-316.21Zm82.23,54.1v70.31c9.24,0,15.72-1.27,19.43-3.81s5.57-10.77,5.57-24.71v-17.38c0-10.03-1.79-16.6-5.37-19.73-3.58-3.12-10.13-4.69-19.63-4.69Zm316.8-54.1v316.21h-72.07l-42.77-143.75v143.75h-68.75v-316.21h68.75l46.09,142.38v-142.38h68.75Zm286.72,0v316.21h-71.88l-.1-213.48-28.61,213.48h-50.98l-30.18-208.59-.1,208.59h-71.88v-316.21h106.4c3.16,19.01,6.41,41.42,9.76,67.22l11.68,80.43,18.9-147.66h106.98Zm220.9,185.16c0,31.77-.75,54.27-2.25,67.48-1.5,13.22-6.19,25.29-14.06,36.23-7.88,10.94-18.52,19.34-31.93,25.2-13.41,5.86-29.04,8.79-46.88,8.79s-32.13-2.77-45.61-8.3-24.32-13.83-32.52-24.9c-8.2-11.07-13.09-23.11-14.65-36.13-1.56-13.02-2.34-35.81-2.34-68.36v-54.1c0-31.77,.75-54.26,2.25-67.48,1.5-13.21,6.18-25.29,14.06-36.23,7.88-10.94,18.52-19.34,31.93-25.2,13.41-5.86,29.04-8.79,46.88-8.79s32.13,2.77,45.61,8.3c13.48,5.54,24.32,13.84,32.52,24.9,8.2,11.07,13.09,23.11,14.65,36.13,1.56,13.02,2.34,35.81,2.34,68.36v54.1Zm-82.23-103.91c0-14.71-.81-24.12-2.44-28.22-1.63-4.1-4.98-6.15-10.06-6.15-4.3,0-7.59,1.66-9.86,4.98-2.28,3.32-3.42,13.12-3.42,29.39v147.66c0,18.36,.75,29.69,2.25,33.98,1.5,4.3,4.98,6.45,10.45,6.45s9.18-2.47,10.74-7.42c1.56-4.95,2.34-16.73,2.34-35.35v-145.31Zm296.48-81.25v316.21h-72.07l-42.77-143.75v143.75h-68.75v-316.21h68.75l46.09,142.38v-142.38h68.75Zm115.23,0v316.21h-82.23v-316.21h82.23Zm198.63,0v63.28h-48.83v252.93h-82.23v-252.93h-48.63v-63.28h179.69Zm206.64,185.16c0,31.77-.75,54.27-2.25,67.48-1.5,13.22-6.19,25.29-14.06,36.23-7.88,10.94-18.52,19.34-31.93,25.2-13.41,5.86-29.04,8.79-46.88,8.79s-32.13-2.77-45.61-8.3-24.32-13.83-32.52-24.9c-8.2-11.07-13.09-23.11-14.65-36.13-1.56-13.02-2.34-35.81-2.34-68.36v-54.1c0-31.77,.75-54.26,2.25-67.48,1.5-13.21,6.18-25.29,14.06-36.23,7.88-10.94,18.52-19.34,31.93-25.2,13.41-5.86,29.03-8.79,46.88-8.79,16.92,0,32.13,2.77,45.61,8.3,13.48,5.54,24.32,13.84,32.52,24.9,8.2,11.07,13.09,23.11,14.65,36.13,1.56,13.02,2.34,35.81,2.34,68.36v54.1Zm-82.23-103.91c0-14.71-.81-24.12-2.44-28.22-1.63-4.1-4.98-6.15-10.06-6.15-4.3,0-7.59,1.66-9.86,4.98-2.28,3.32-3.42,13.12-3.42,29.39v147.66c0,18.36,.75,29.69,2.25,33.98,1.5,4.3,4.98,6.45,10.45,6.45s9.18-2.47,10.74-7.42c1.56-4.95,2.34-16.73,2.34-35.35v-145.31Zm112.89-81.25h58.2c38.8,0,65.07,1.5,78.81,4.49,13.74,3,24.93,10.64,33.59,22.95,8.66,12.3,12.99,31.93,12.99,58.89,0,24.61-3.06,41.15-9.18,49.61-6.12,8.47-18.16,13.54-36.13,15.23,16.28,4.04,27.21,9.44,32.81,16.21,5.6,6.77,9.08,12.99,10.45,18.65s2.05,21.26,2.05,46.78v83.4h-76.37v-105.08c0-16.92-1.34-27.41-4-31.45-2.67-4.03-9.67-6.05-21-6.05v142.58h-82.23v-316.21Zm82.23,54.1v70.31c9.24,0,15.72-1.27,19.43-3.81s5.57-10.77,5.57-24.71v-17.38c0-10.03-1.79-16.6-5.37-19.73-3.58-3.12-10.13-4.69-19.63-4.69Z"/>
  <text class="cls-28" transform="translate(0 2137.15)"><tspan class="cls-21" x="0" y="0">W</tspan><tspan x="247.05" y="0">he</tspan><tspan class="cls-19" x="511.5" y="0">r</tspan><tspan x="589.2" y="0">e you</tspan><tspan class="cls-27" x="1199.39" y="0">r</tspan><tspan class="cls-5" x="1285.04" y="0" xmlSpace="preserve"> he</tspan><tspan class="cls-15" x="1615.04" y="0">r</tspan><tspan class="cls-12" x="1692.74" y="0">d thri</tspan><tspan class="cls-2" x="2249.99" y="0">v</tspan><tspan class="cls-5" x="2373.44" y="0">es</tspan></text>
</svg>